# xmcd CD database file
#
# Track frame offsets:
#	182
#	15577
#	29340
#	62565
#	79947
#	92340
#	120102
#	130265
#	168300
#
# Disc length: 2576 seconds
#
# Revision: 0
# Processed by: cddbd v1.5.2PL0 Copyright (c) Steve Scherf et al.
# Submitted via: CDex 1.94
#
DISCID=5f0a0e09
DTITLE=Chick Corea - Return To Forever - No Mystery
DYEAR=1975
DGENRE=Jazz
TTITLE0=Dayride
TTITLE1=Jungle Waterfall
TTITLE2=Flight Of The Newborn
TTITLE3=Sofistifunk
TTITLE4=Excerpt from The First Movement Of Heavy Metal
TTITLE5=No Mystery
TTITLE6=Interplay
TTITLE7=Celebration Suite Part I
TTITLE8=Celebration Suite Part II
EXTD=YEAR: 1975
EXTT0=
EXTT1=
EXTT2=
EXTT3=
EXTT4=
EXTT5=
EXTT6=
EXTT7=
EXTT8=
PLAYORDER=
